<svg xmlns="http://www.w3.org/2000/svg" xmlns:xlink="http://www.w3.org/1999/xlink" width="500" zoomAndPan="magnify" viewBox="0 0 375 374.999991" height="500" preserveAspectRatio="xMidYMid meet" version="1.0"><defs><g/><clipPath id="e35d98abd7"><path d="M 162 108.464844 L 214 108.464844 L 214 135 L 162 135 Z M 162 108.464844 " clip-rule="nonzero"/></clipPath><clipPath id="222ac8d679"><path d="M 145 138 L 241.988281 138 L 241.988281 229.964844 L 145 229.964844 Z M 145 138 " clip-rule="nonzero"/></clipPath><clipPath id="8b52b280bb"><path d="M 133.238281 145 L 147 145 L 147 226 L 133.238281 226 Z M 133.238281 145 " clip-rule="nonzero"/></clipPath><clipPath id="4ae1f5fdd3"><path d="M 162 108.464844 L 214 108.464844 L 214 135 L 162 135 Z M 162 108.464844 " clip-rule="nonzero"/></clipPath><clipPath id="bb3bd9289c"><path d="M 0.398438 11 L 1 11 L 1 12 L 0.398438 12 Z M 0.398438 11 " clip-rule="nonzero"/></clipPath><clipPath id="df003b98c1"><rect x="0" width="13" y="0" height="15"/></clipPath></defs><g clip-path="url(#e35d98abd7)"><path fill="#ff6825" d="M 213.230469 134.265625 L 207.675781 134.265625 C 207.640625 123.289062 198.726562 114.398438 187.738281 114.398438 C 176.761719 114.398438 167.855469 123.265625 167.796875 134.230469 L 162.289062 134.230469 C 162.277344 133.804688 162.273438 133.382812 162.277344 132.964844 C 162.992188 119.523438 174.121094 108.84375 187.738281 108.84375 C 201.375 108.84375 212.511719 119.554688 213.195312 133.023438 C 213.203125 133.148438 213.207031 133.273438 213.210938 133.402344 C 213.214844 133.628906 213.222656 133.859375 213.226562 134.089844 C 213.230469 134.148438 213.230469 134.207031 213.230469 134.265625 Z M 213.230469 134.265625 " fill-opacity="1" fill-rule="evenodd"/></g><g clip-path="url(#222ac8d679)"><path fill="#ff6825" d="M 241.632812 215.238281 C 240.890625 208.105469 240.199219 200.96875 239.46875 193.832031 C 239.09375 190.125 238.703125 186.410156 238.316406 182.703125 C 237.988281 179.542969 237.65625 176.382812 237.332031 173.222656 C 236.683594 166.910156 236.054688 160.597656 235.40625 154.285156 C 235.113281 151.421875 234.789062 148.558594 234.464844 145.601562 L 227.4375 145.601562 C 227.167969 143.171875 226.914062 140.832031 226.648438 138.433594 L 151.328125 138.433594 C 149.273438 168.84375 147.21875 199.214844 145.164062 229.621094 L 230.257812 229.621094 L 228.59375 187.582031 L 230.753906 187.582031 C 231.863281 200.144531 232.964844 212.632812 234.09375 225.390625 C 236.554688 222.457031 238.800781 219.746094 241.105469 217.074219 C 241.59375 216.5 241.710938 215.960938 241.632812 215.238281 Z M 152.496094 224.996094 L 154.601562 170.234375 L 159.640625 218.703125 L 200.300781 224.996094 Z M 152.496094 224.996094 " fill-opacity="1" fill-rule="evenodd"/></g><g clip-path="url(#8b52b280bb)"><path fill="#1f2540" d="M 146.820312 145.601562 C 144.972656 172.269531 143.136719 198.796875 141.273438 225.671875 C 140.050781 224.285156 139.046875 223.171875 138.074219 222.039062 C 137.191406 221.015625 136.351562 219.960938 135.476562 218.925781 C 133.167969 216.214844 133.207031 216.222656 133.566406 212.710938 C 134.402344 204.566406 135.195312 196.421875 136 188.277344 C 136.949219 178.675781 137.902344 169.074219 138.84375 159.472656 C 139.261719 155.214844 139.675781 150.957031 140.03125 146.691406 C 140.105469 145.828125 140.375 145.546875 141.25 145.578125 C 143.042969 145.648438 144.839844 145.601562 146.820312 145.601562 Z M 146.820312 145.601562 " fill-opacity="1" fill-rule="evenodd"/></g><g clip-path="url(#4ae1f5fdd3)"><path fill="#ff6825" d="M 213.226562 134.089844 C 213.226562 133.859375 213.21875 133.628906 213.214844 133.402344 C 213.210938 133.273438 213.203125 133.152344 213.199219 133.023438 C 212.515625 119.554688 201.375 108.847656 187.738281 108.847656 C 174.121094 108.847656 162.996094 119.523438 162.28125 132.964844 C 162.253906 133.417969 162.246094 133.875 162.246094 134.335938 L 167.796875 134.335938 L 167.796875 134.226562 C 167.855469 123.265625 176.761719 114.394531 187.738281 114.394531 C 198.726562 114.394531 207.640625 123.289062 207.679688 134.265625 L 207.679688 134.335938 L 213.230469 134.335938 L 213.230469 134.265625 C 213.230469 134.207031 213.230469 134.144531 213.226562 134.089844 Z M 213.226562 134.089844 " fill-opacity="1" fill-rule="evenodd"/></g><g transform="matrix(1, 0, 0, 1, 182, 274)"><g clip-path="url(#df003b98c1)"><g clip-path="url(#bb3bd9289c)"><g fill="#1f2540" fill-opacity="1"><g transform="translate(0.984185, 11.129598)"><g/></g></g></g></g></g></svg>
