<svg xmlns="http://www.w3.org/2000/svg" xmlns:xlink="http://www.w3.org/1999/xlink" width="500" zoomAndPan="magnify" viewBox="0 0 375 374.999991" height="500" preserveAspectRatio="xMidYMid meet" version="1.0"><defs><g/><clipPath id="983d04197a"><path d="M 162 108.464844 L 214 108.464844 L 214 135 L 162 135 Z M 162 108.464844 " clip-rule="nonzero"/></clipPath><clipPath id="91c919fefe"><path d="M 145 138 L 241.988281 138 L 241.988281 229.964844 L 145 229.964844 Z M 145 138 " clip-rule="nonzero"/></clipPath><clipPath id="0e6fe6bb8f"><path d="M 133.238281 145 L 147 145 L 147 226 L 133.238281 226 Z M 133.238281 145 " clip-rule="nonzero"/></clipPath><clipPath id="bcac97f0db"><path d="M 162 108.464844 L 214 108.464844 L 214 135 L 162 135 Z M 162 108.464844 " clip-rule="nonzero"/></clipPath><clipPath id="8b951ca1b9"><rect x="0" width="85" y="0" height="48"/></clipPath><clipPath id="d49e6858f3"><rect x="0" width="101" y="0" height="15"/></clipPath></defs><g clip-path="url(#983d04197a)"><path fill="#ff6825" d="M 213.230469 134.265625 L 207.675781 134.265625 C 207.640625 123.289062 198.726562 114.398438 187.738281 114.398438 C 176.761719 114.398438 167.855469 123.265625 167.796875 134.230469 L 162.289062 134.230469 C 162.277344 133.804688 162.273438 133.382812 162.277344 132.964844 C 162.992188 119.523438 174.121094 108.84375 187.738281 108.84375 C 201.375 108.84375 212.511719 119.554688 213.195312 133.023438 C 213.203125 133.148438 213.207031 133.273438 213.210938 133.402344 C 213.214844 133.628906 213.222656 133.859375 213.226562 134.089844 C 213.230469 134.148438 213.230469 134.207031 213.230469 134.265625 Z M 213.230469 134.265625 " fill-opacity="1" fill-rule="evenodd"/></g><g clip-path="url(#91c919fefe)"><path fill="#ff6825" d="M 241.632812 215.238281 C 240.890625 208.105469 240.199219 200.96875 239.46875 193.832031 C 239.09375 190.125 238.703125 186.410156 238.316406 182.703125 C 237.988281 179.542969 237.65625 176.382812 237.332031 173.222656 C 236.683594 166.910156 236.054688 160.597656 235.40625 154.285156 C 235.113281 151.421875 234.789062 148.558594 234.464844 145.601562 L 227.4375 145.601562 C 227.167969 143.171875 226.914062 140.832031 226.648438 138.433594 L 151.328125 138.433594 C 149.273438 168.84375 147.21875 199.214844 145.164062 229.621094 L 230.257812 229.621094 L 228.59375 187.582031 L 230.753906 187.582031 C 231.863281 200.144531 232.964844 212.632812 234.09375 225.390625 C 236.554688 222.457031 238.800781 219.746094 241.105469 217.074219 C 241.59375 216.5 241.710938 215.960938 241.632812 215.238281 Z M 152.496094 224.996094 L 154.601562 170.234375 L 159.640625 218.703125 L 200.300781 224.996094 Z M 152.496094 224.996094 " fill-opacity="1" fill-rule="evenodd"/></g><g clip-path="url(#0e6fe6bb8f)"><path fill="#1f2540" d="M 146.820312 145.601562 C 144.972656 172.269531 143.136719 198.796875 141.273438 225.671875 C 140.050781 224.285156 139.046875 223.171875 138.074219 222.039062 C 137.191406 221.015625 136.351562 219.960938 135.476562 218.925781 C 133.167969 216.214844 133.207031 216.222656 133.566406 212.710938 C 134.402344 204.566406 135.195312 196.421875 136 188.277344 C 136.949219 178.675781 137.902344 169.074219 138.84375 159.472656 C 139.261719 155.214844 139.675781 150.957031 140.03125 146.691406 C 140.105469 145.828125 140.375 145.546875 141.25 145.578125 C 143.042969 145.648438 144.839844 145.601562 146.820312 145.601562 Z M 146.820312 145.601562 " fill-opacity="1" fill-rule="evenodd"/></g><g clip-path="url(#bcac97f0db)"><path fill="#ff6825" d="M 213.226562 134.089844 C 213.226562 133.859375 213.21875 133.628906 213.214844 133.402344 C 213.210938 133.273438 213.203125 133.152344 213.199219 133.023438 C 212.515625 119.554688 201.375 108.847656 187.738281 108.847656 C 174.121094 108.847656 162.996094 119.523438 162.28125 132.964844 C 162.253906 133.417969 162.246094 133.875 162.246094 134.335938 L 167.796875 134.335938 L 167.796875 134.226562 C 167.855469 123.265625 176.761719 114.394531 187.738281 114.394531 C 198.726562 114.394531 207.640625 123.289062 207.679688 134.265625 L 207.679688 134.335938 L 213.230469 134.335938 L 213.230469 134.265625 C 213.230469 134.207031 213.230469 134.144531 213.226562 134.089844 Z M 213.226562 134.089844 " fill-opacity="1" fill-rule="evenodd"/></g><g fill="#ffffff" fill-opacity="1"><g transform="translate(190.31529, 265.883083)"><g><path d="M 26.171875 -26.3125 L 14.515625 0 L 11.765625 0 L 0.109375 -26.3125 L 3.125 -26.3125 L 13.203125 -3.453125 L 23.34375 -26.3125 Z M 26.171875 -26.3125 "/></g></g></g><g fill="#ffffff" fill-opacity="1"><g transform="translate(214.32956, 265.883083)"><g><path d="M 20.9375 -9.0625 L 4.40625 -9.0625 C 4.550781 -7.007812 5.335938 -5.347656 6.765625 -4.078125 C 8.191406 -2.816406 10 -2.1875 12.1875 -2.1875 C 13.40625 -2.1875 14.53125 -2.40625 15.5625 -2.84375 C 16.59375 -3.28125 17.484375 -3.925781 18.234375 -4.78125 L 19.734375 -3.046875 C 18.859375 -1.992188 17.757812 -1.191406 16.4375 -0.640625 C 15.125 -0.0859375 13.679688 0.1875 12.109375 0.1875 C 10.078125 0.1875 8.273438 -0.242188 6.703125 -1.109375 C 5.140625 -1.972656 3.921875 -3.171875 3.046875 -4.703125 C 2.171875 -6.234375 1.734375 -7.960938 1.734375 -9.890625 C 1.734375 -11.816406 2.148438 -13.546875 2.984375 -15.078125 C 3.828125 -16.609375 4.976562 -17.796875 6.4375 -18.640625 C 7.90625 -19.492188 9.554688 -19.921875 11.390625 -19.921875 C 13.222656 -19.921875 14.863281 -19.492188 16.3125 -18.640625 C 17.769531 -17.796875 18.910156 -16.613281 19.734375 -15.09375 C 20.566406 -13.570312 20.984375 -11.835938 20.984375 -9.890625 Z M 11.390625 -17.625 C 9.484375 -17.625 7.882812 -17.015625 6.59375 -15.796875 C 5.300781 -14.585938 4.570312 -13.003906 4.40625 -11.046875 L 18.421875 -11.046875 C 18.242188 -13.003906 17.507812 -14.585938 16.21875 -15.796875 C 14.925781 -17.015625 13.316406 -17.625 11.390625 -17.625 Z M 11.390625 -17.625 "/></g></g></g><g fill="#ffffff" fill-opacity="1"><g transform="translate(234.811118, 265.883083)"><g><path d="M 13.796875 -19.921875 C 16.273438 -19.921875 18.25 -19.195312 19.71875 -17.75 C 21.1875 -16.3125 21.921875 -14.21875 21.921875 -11.46875 L 21.921875 0 L 19.25 0 L 19.25 -11.203125 C 19.25 -13.253906 18.734375 -14.816406 17.703125 -15.890625 C 16.679688 -16.972656 15.21875 -17.515625 13.3125 -17.515625 C 11.175781 -17.515625 9.488281 -16.878906 8.25 -15.609375 C 7.007812 -14.347656 6.390625 -12.601562 6.390625 -10.375 L 6.390625 0 L 3.71875 0 L 3.71875 -19.78125 L 6.28125 -19.78125 L 6.28125 -16.125 C 7.007812 -17.332031 8.015625 -18.265625 9.296875 -18.921875 C 10.585938 -19.585938 12.085938 -19.921875 13.796875 -19.921875 Z M 13.796875 -19.921875 "/></g></g></g><g fill="#ffffff" fill-opacity="1"><g transform="translate(258.036168, 265.883083)"><g><path d="M 21.765625 -27.890625 L 21.765625 0 L 19.203125 0 L 19.203125 -3.90625 C 18.398438 -2.582031 17.34375 -1.566406 16.03125 -0.859375 C 14.71875 -0.160156 13.234375 0.1875 11.578125 0.1875 C 9.722656 0.1875 8.039062 -0.238281 6.53125 -1.09375 C 5.03125 -1.945312 3.851562 -3.132812 3 -4.65625 C 2.15625 -6.1875 1.734375 -7.929688 1.734375 -9.890625 C 1.734375 -11.835938 2.15625 -13.578125 3 -15.109375 C 3.851562 -16.640625 5.03125 -17.820312 6.53125 -18.65625 C 8.039062 -19.5 9.722656 -19.921875 11.578125 -19.921875 C 13.179688 -19.921875 14.628906 -19.585938 15.921875 -18.921875 C 17.210938 -18.265625 18.269531 -17.296875 19.09375 -16.015625 L 19.09375 -27.890625 Z M 11.796875 -2.1875 C 13.179688 -2.1875 14.429688 -2.503906 15.546875 -3.140625 C 16.660156 -3.773438 17.535156 -4.679688 18.171875 -5.859375 C 18.816406 -7.035156 19.140625 -8.378906 19.140625 -9.890625 C 19.140625 -11.390625 18.816406 -12.726562 18.171875 -13.90625 C 17.535156 -15.082031 16.660156 -15.988281 15.546875 -16.625 C 14.429688 -17.269531 13.179688 -17.59375 11.796875 -17.59375 C 10.398438 -17.59375 9.144531 -17.269531 8.03125 -16.625 C 6.914062 -15.988281 6.035156 -15.082031 5.390625 -13.90625 C 4.753906 -12.726562 4.4375 -11.390625 4.4375 -9.890625 C 4.4375 -8.378906 4.753906 -7.035156 5.390625 -5.859375 C 6.035156 -4.679688 6.914062 -3.773438 8.03125 -3.140625 C 9.144531 -2.503906 10.398438 -2.1875 11.796875 -2.1875 Z M 11.796875 -2.1875 "/></g></g></g><g fill="#ffffff" fill-opacity="1"><g transform="translate(281.298801, 265.883083)"><g><path d="M 10.640625 -19.921875 C 13.222656 -19.921875 15.203125 -19.273438 16.578125 -17.984375 C 17.953125 -16.691406 18.640625 -14.78125 18.640625 -12.25 L 18.640625 0 L 16.09375 0 L 16.09375 -3.078125 C 15.488281 -2.054688 14.601562 -1.253906 13.4375 -0.671875 C 12.269531 -0.0976562 10.882812 0.1875 9.28125 0.1875 C 7.082031 0.1875 5.328125 -0.335938 4.015625 -1.390625 C 2.710938 -2.441406 2.0625 -3.832031 2.0625 -5.5625 C 2.0625 -7.238281 2.671875 -8.59375 3.890625 -9.625 C 5.109375 -10.65625 7.046875 -11.171875 9.703125 -11.171875 L 15.984375 -11.171875 L 15.984375 -12.375 C 15.984375 -14.070312 15.503906 -15.363281 14.546875 -16.25 C 13.597656 -17.144531 12.207031 -17.59375 10.375 -17.59375 C 9.125 -17.59375 7.921875 -17.382812 6.765625 -16.96875 C 5.609375 -16.5625 4.617188 -15.992188 3.796875 -15.265625 L 2.59375 -17.25 C 3.59375 -18.101562 4.796875 -18.757812 6.203125 -19.21875 C 7.609375 -19.6875 9.085938 -19.921875 10.640625 -19.921875 Z M 9.703125 -1.921875 C 11.203125 -1.921875 12.488281 -2.265625 13.5625 -2.953125 C 14.644531 -3.640625 15.453125 -4.632812 15.984375 -5.9375 L 15.984375 -9.171875 L 9.78125 -9.171875 C 6.394531 -9.171875 4.703125 -7.992188 4.703125 -5.640625 C 4.703125 -4.484375 5.140625 -3.570312 6.015625 -2.90625 C 6.890625 -2.25 8.117188 -1.921875 9.703125 -1.921875 Z M 9.703125 -1.921875 "/></g></g></g><g fill="#ffffff" fill-opacity="1"><g transform="translate(301.254218, 265.883083)"><g><path d="M 9.015625 0.1875 C 7.410156 0.1875 5.875 -0.0390625 4.40625 -0.5 C 2.945312 -0.96875 1.804688 -1.550781 0.984375 -2.25 L 2.1875 -4.359375 C 3.007812 -3.710938 4.046875 -3.179688 5.296875 -2.765625 C 6.554688 -2.347656 7.859375 -2.140625 9.203125 -2.140625 C 11.015625 -2.140625 12.351562 -2.421875 13.21875 -2.984375 C 14.082031 -3.546875 14.515625 -4.34375 14.515625 -5.375 C 14.515625 -6.101562 14.273438 -6.671875 13.796875 -7.078125 C 13.316406 -7.492188 12.710938 -7.804688 11.984375 -8.015625 C 11.265625 -8.234375 10.300781 -8.441406 9.09375 -8.640625 C 7.488281 -8.941406 6.195312 -9.25 5.21875 -9.5625 C 4.25 -9.875 3.414062 -10.40625 2.71875 -11.15625 C 2.03125 -11.914062 1.6875 -12.957031 1.6875 -14.28125 C 1.6875 -15.9375 2.375 -17.289062 3.75 -18.34375 C 5.132812 -19.394531 7.054688 -19.921875 9.515625 -19.921875 C 10.785156 -19.921875 12.0625 -19.75 13.34375 -19.40625 C 14.625 -19.070312 15.675781 -18.628906 16.5 -18.078125 L 15.34375 -15.9375 C 13.707031 -17.0625 11.765625 -17.625 9.515625 -17.625 C 7.804688 -17.625 6.519531 -17.320312 5.65625 -16.71875 C 4.789062 -16.125 4.359375 -15.335938 4.359375 -14.359375 C 4.359375 -13.609375 4.601562 -13.003906 5.09375 -12.546875 C 5.582031 -12.097656 6.1875 -11.765625 6.90625 -11.546875 C 7.632812 -11.335938 8.640625 -11.125 9.921875 -10.90625 C 11.503906 -10.601562 12.769531 -10.300781 13.71875 -10 C 14.675781 -9.695312 15.492188 -9.179688 16.171875 -8.453125 C 16.847656 -7.734375 17.1875 -6.734375 17.1875 -5.453125 C 17.1875 -3.722656 16.460938 -2.347656 15.015625 -1.328125 C 13.578125 -0.316406 11.578125 0.1875 9.015625 0.1875 Z M 9.015625 0.1875 "/></g></g></g><g transform="matrix(1, 0, 0, 1, 98, 228)"><g clip-path="url(#8b951ca1b9)"><g fill="#ff6825" fill-opacity="0.4"><g transform="translate(1.028133, 37.510401)"><g><path d="M 40.40625 -26.3125 L 31.546875 0 L 28.609375 0 L 20.90625 -22.4375 L 13.15625 0 L 10.265625 0 L 1.390625 -26.3125 L 4.25 -26.3125 L 11.84375 -3.6875 L 19.703125 -26.3125 L 22.296875 -26.3125 L 30.03125 -3.578125 L 37.75 -26.3125 Z M 40.40625 -26.3125 "/></g></g></g><g fill="#ff6825" fill-opacity="0.4"><g transform="translate(40.569135, 37.510401)"><g><path d="M 10.640625 -19.921875 C 13.222656 -19.921875 15.203125 -19.273438 16.578125 -17.984375 C 17.953125 -16.691406 18.640625 -14.78125 18.640625 -12.25 L 18.640625 0 L 16.09375 0 L 16.09375 -3.078125 C 15.488281 -2.054688 14.601562 -1.253906 13.4375 -0.671875 C 12.269531 -0.0976562 10.882812 0.1875 9.28125 0.1875 C 7.082031 0.1875 5.328125 -0.335938 4.015625 -1.390625 C 2.710938 -2.441406 2.0625 -3.832031 2.0625 -5.5625 C 2.0625 -7.238281 2.671875 -8.59375 3.890625 -9.625 C 5.109375 -10.65625 7.046875 -11.171875 9.703125 -11.171875 L 15.984375 -11.171875 L 15.984375 -12.375 C 15.984375 -14.070312 15.503906 -15.363281 14.546875 -16.25 C 13.597656 -17.144531 12.207031 -17.59375 10.375 -17.59375 C 9.125 -17.59375 7.921875 -17.382812 6.765625 -16.96875 C 5.609375 -16.5625 4.617188 -15.992188 3.796875 -15.265625 L 2.59375 -17.25 C 3.59375 -18.101562 4.796875 -18.757812 6.203125 -19.21875 C 7.609375 -19.6875 9.085938 -19.921875 10.640625 -19.921875 Z M 9.703125 -1.921875 C 11.203125 -1.921875 12.488281 -2.265625 13.5625 -2.953125 C 14.644531 -3.640625 15.453125 -4.632812 15.984375 -5.9375 L 15.984375 -9.171875 L 9.78125 -9.171875 C 6.394531 -9.171875 4.703125 -7.992188 4.703125 -5.640625 C 4.703125 -4.484375 5.140625 -3.570312 6.015625 -2.90625 C 6.890625 -2.25 8.117188 -1.921875 9.703125 -1.921875 Z M 9.703125 -1.921875 "/></g></g></g><g fill="#ff6825" fill-opacity="0.4"><g transform="translate(60.527385, 37.510401)"><g><path d="M 22.03125 -19.78125 L 22.03125 -2.40625 C 22.03125 0.945312 21.207031 3.429688 19.5625 5.046875 C 17.925781 6.671875 15.453125 7.484375 12.140625 7.484375 C 10.316406 7.484375 8.582031 7.210938 6.9375 6.671875 C 5.289062 6.128906 3.957031 5.382812 2.9375 4.4375 L 4.28125 2.40625 C 5.238281 3.257812 6.398438 3.921875 7.765625 4.390625 C 9.128906 4.867188 10.5625 5.109375 12.0625 5.109375 C 14.570312 5.109375 16.414062 4.523438 17.59375 3.359375 C 18.769531 2.191406 19.359375 0.382812 19.359375 -2.0625 L 19.359375 -4.59375 C 18.535156 -3.332031 17.453125 -2.375 16.109375 -1.71875 C 14.765625 -1.070312 13.28125 -0.75 11.65625 -0.75 C 9.800781 -0.75 8.113281 -1.15625 6.59375 -1.96875 C 5.082031 -2.789062 3.894531 -3.929688 3.03125 -5.390625 C 2.164062 -6.859375 1.734375 -8.519531 1.734375 -10.375 C 1.734375 -12.226562 2.164062 -13.878906 3.03125 -15.328125 C 3.894531 -16.785156 5.078125 -17.914062 6.578125 -18.71875 C 8.078125 -19.519531 9.769531 -19.921875 11.65625 -19.921875 C 13.332031 -19.921875 14.847656 -19.582031 16.203125 -18.90625 C 17.554688 -18.226562 18.644531 -17.253906 19.46875 -15.984375 L 19.46875 -19.78125 Z M 11.921875 -3.125 C 13.347656 -3.125 14.632812 -3.429688 15.78125 -4.046875 C 16.9375 -4.660156 17.832031 -5.515625 18.46875 -6.609375 C 19.113281 -7.710938 19.4375 -8.96875 19.4375 -10.375 C 19.4375 -11.78125 19.113281 -13.023438 18.46875 -14.109375 C 17.832031 -15.203125 16.941406 -16.054688 15.796875 -16.671875 C 14.660156 -17.285156 13.367188 -17.59375 11.921875 -17.59375 C 10.492188 -17.59375 9.207031 -17.289062 8.0625 -16.6875 C 6.925781 -16.09375 6.035156 -15.242188 5.390625 -14.140625 C 4.753906 -13.035156 4.4375 -11.78125 4.4375 -10.375 C 4.4375 -8.96875 4.753906 -7.710938 5.390625 -6.609375 C 6.035156 -5.515625 6.925781 -4.660156 8.0625 -4.046875 C 9.207031 -3.429688 10.492188 -3.125 11.921875 -3.125 Z M 11.921875 -3.125 "/></g></g></g><g fill="#ff6825" fill-opacity="1"><g transform="translate(1.028133, 37.510401)"><g><path d="M 40.40625 -26.3125 L 31.546875 0 L 28.609375 0 L 20.90625 -22.4375 L 13.15625 0 L 10.265625 0 L 1.390625 -26.3125 L 4.25 -26.3125 L 11.84375 -3.6875 L 19.703125 -26.3125 L 22.296875 -26.3125 L 30.03125 -3.578125 L 37.75 -26.3125 Z M 40.40625 -26.3125 "/></g></g></g><g fill="#ff6825" fill-opacity="1"><g transform="translate(40.569135, 37.510401)"><g><path d="M 10.640625 -19.921875 C 13.222656 -19.921875 15.203125 -19.273438 16.578125 -17.984375 C 17.953125 -16.691406 18.640625 -14.78125 18.640625 -12.25 L 18.640625 0 L 16.09375 0 L 16.09375 -3.078125 C 15.488281 -2.054688 14.601562 -1.253906 13.4375 -0.671875 C 12.269531 -0.0976562 10.882812 0.1875 9.28125 0.1875 C 7.082031 0.1875 5.328125 -0.335938 4.015625 -1.390625 C 2.710938 -2.441406 2.0625 -3.832031 2.0625 -5.5625 C 2.0625 -7.238281 2.671875 -8.59375 3.890625 -9.625 C 5.109375 -10.65625 7.046875 -11.171875 9.703125 -11.171875 L 15.984375 -11.171875 L 15.984375 -12.375 C 15.984375 -14.070312 15.503906 -15.363281 14.546875 -16.25 C 13.597656 -17.144531 12.207031 -17.59375 10.375 -17.59375 C 9.125 -17.59375 7.921875 -17.382812 6.765625 -16.96875 C 5.609375 -16.5625 4.617188 -15.992188 3.796875 -15.265625 L 2.59375 -17.25 C 3.59375 -18.101562 4.796875 -18.757812 6.203125 -19.21875 C 7.609375 -19.6875 9.085938 -19.921875 10.640625 -19.921875 Z M 9.703125 -1.921875 C 11.203125 -1.921875 12.488281 -2.265625 13.5625 -2.953125 C 14.644531 -3.640625 15.453125 -4.632812 15.984375 -5.9375 L 15.984375 -9.171875 L 9.78125 -9.171875 C 6.394531 -9.171875 4.703125 -7.992188 4.703125 -5.640625 C 4.703125 -4.484375 5.140625 -3.570312 6.015625 -2.90625 C 6.890625 -2.25 8.117188 -1.921875 9.703125 -1.921875 Z M 9.703125 -1.921875 "/></g></g></g><g fill="#ff6825" fill-opacity="1"><g transform="translate(60.527385, 37.510401)"><g><path d="M 22.03125 -19.78125 L 22.03125 -2.40625 C 22.03125 0.945312 21.207031 3.429688 19.5625 5.046875 C 17.925781 6.671875 15.453125 7.484375 12.140625 7.484375 C 10.316406 7.484375 8.582031 7.210938 6.9375 6.671875 C 5.289062 6.128906 3.957031 5.382812 2.9375 4.4375 L 4.28125 2.40625 C 5.238281 3.257812 6.398438 3.921875 7.765625 4.390625 C 9.128906 4.867188 10.5625 5.109375 12.0625 5.109375 C 14.570312 5.109375 16.414062 4.523438 17.59375 3.359375 C 18.769531 2.191406 19.359375 0.382812 19.359375 -2.0625 L 19.359375 -4.59375 C 18.535156 -3.332031 17.453125 -2.375 16.109375 -1.71875 C 14.765625 -1.070312 13.28125 -0.75 11.65625 -0.75 C 9.800781 -0.75 8.113281 -1.15625 6.59375 -1.96875 C 5.082031 -2.789062 3.894531 -3.929688 3.03125 -5.390625 C 2.164062 -6.859375 1.734375 -8.519531 1.734375 -10.375 C 1.734375 -12.226562 2.164062 -13.878906 3.03125 -15.328125 C 3.894531 -16.785156 5.078125 -17.914062 6.578125 -18.71875 C 8.078125 -19.519531 9.769531 -19.921875 11.65625 -19.921875 C 13.332031 -19.921875 14.847656 -19.582031 16.203125 -18.90625 C 17.554688 -18.226562 18.644531 -17.253906 19.46875 -15.984375 L 19.46875 -19.78125 Z M 11.921875 -3.125 C 13.347656 -3.125 14.632812 -3.429688 15.78125 -4.046875 C 16.9375 -4.660156 17.832031 -5.515625 18.46875 -6.609375 C 19.113281 -7.710938 19.4375 -8.96875 19.4375 -10.375 C 19.4375 -11.78125 19.113281 -13.023438 18.46875 -14.109375 C 17.832031 -15.203125 16.941406 -16.054688 15.796875 -16.671875 C 14.660156 -17.285156 13.367188 -17.59375 11.921875 -17.59375 C 10.492188 -17.59375 9.207031 -17.289062 8.0625 -16.6875 C 6.925781 -16.09375 6.035156 -15.242188 5.390625 -14.140625 C 4.753906 -13.035156 4.4375 -11.78125 4.4375 -10.375 C 4.4375 -8.96875 4.753906 -7.710938 5.390625 -6.609375 C 6.035156 -5.515625 6.925781 -4.660156 8.0625 -4.046875 C 9.207031 -3.429688 10.492188 -3.125 11.921875 -3.125 Z M 11.921875 -3.125 "/></g></g></g></g></g><g transform="matrix(1, 0, 0, 1, 138, 274)"><g clip-path="url(#d49e6858f3)"><g fill="#1f2540" fill-opacity="1"><g transform="translate(0.565037, 11.129598)"><g><path d="M 7.046875 -1 L 7.046875 0 L 1.203125 0 L 1.203125 -8.046875 L 6.875 -8.046875 L 6.875 -7.046875 L 2.359375 -7.046875 L 2.359375 -4.578125 L 6.390625 -4.578125 L 6.390625 -3.59375 L 2.359375 -3.59375 L 2.359375 -1 Z M 7.046875 -1 "/></g></g></g><g fill="#1f2540" fill-opacity="1"><g transform="translate(9.796817, 11.129598)"><g><path d="M 0.65625 -3.625 L 3.75 -3.625 L 3.75 -2.671875 L 0.65625 -2.671875 Z M 0.65625 -3.625 "/></g></g></g><g fill="#1f2540" fill-opacity="1"><g transform="translate(15.733516, 11.129598)"><g><path d="M 4.796875 0.09375 C 3.992188 0.09375 3.269531 -0.0820312 2.625 -0.4375 C 1.976562 -0.789062 1.46875 -1.28125 1.09375 -1.90625 C 0.726562 -2.53125 0.546875 -3.234375 0.546875 -4.015625 C 0.546875 -4.796875 0.726562 -5.5 1.09375 -6.125 C 1.46875 -6.75 1.976562 -7.238281 2.625 -7.59375 C 3.28125 -7.945312 4.007812 -8.125 4.8125 -8.125 C 5.4375 -8.125 6.007812 -8.019531 6.53125 -7.8125 C 7.050781 -7.601562 7.492188 -7.289062 7.859375 -6.875 L 7.125 -6.15625 C 6.519531 -6.789062 5.765625 -7.109375 4.859375 -7.109375 C 4.265625 -7.109375 3.722656 -6.972656 3.234375 -6.703125 C 2.753906 -6.441406 2.378906 -6.070312 2.109375 -5.59375 C 1.835938 -5.125 1.703125 -4.597656 1.703125 -4.015625 C 1.703125 -3.429688 1.835938 -2.90625 2.109375 -2.4375 C 2.378906 -1.96875 2.753906 -1.597656 3.234375 -1.328125 C 3.722656 -1.066406 4.265625 -0.9375 4.859375 -0.9375 C 5.753906 -0.9375 6.507812 -1.253906 7.125 -1.890625 L 7.859375 -1.171875 C 7.492188 -0.753906 7.050781 -0.4375 6.53125 -0.21875 C 6.007812 -0.0078125 5.429688 0.09375 4.796875 0.09375 Z M 4.796875 0.09375 "/></g></g></g><g fill="#1f2540" fill-opacity="1"><g transform="translate(25.573797, 11.129598)"><g><path d="M 4.828125 0.09375 C 4.023438 0.09375 3.296875 -0.0820312 2.640625 -0.4375 C 1.992188 -0.789062 1.484375 -1.28125 1.109375 -1.90625 C 0.734375 -2.539062 0.546875 -3.242188 0.546875 -4.015625 C 0.546875 -4.785156 0.734375 -5.484375 1.109375 -6.109375 C 1.484375 -6.742188 1.992188 -7.238281 2.640625 -7.59375 C 3.296875 -7.945312 4.023438 -8.125 4.828125 -8.125 C 5.640625 -8.125 6.367188 -7.945312 7.015625 -7.59375 C 7.671875 -7.238281 8.179688 -6.75 8.546875 -6.125 C 8.910156 -5.5 9.09375 -4.796875 9.09375 -4.015625 C 9.09375 -3.234375 8.910156 -2.53125 8.546875 -1.90625 C 8.179688 -1.28125 7.671875 -0.789062 7.015625 -0.4375 C 6.367188 -0.0820312 5.640625 0.09375 4.828125 0.09375 Z M 4.828125 -0.9375 C 5.421875 -0.9375 5.953125 -1.066406 6.421875 -1.328125 C 6.890625 -1.597656 7.257812 -1.96875 7.53125 -2.4375 C 7.8125 -2.90625 7.953125 -3.429688 7.953125 -4.015625 C 7.953125 -4.597656 7.8125 -5.125 7.53125 -5.59375 C 7.257812 -6.070312 6.890625 -6.441406 6.421875 -6.703125 C 5.953125 -6.972656 5.421875 -7.109375 4.828125 -7.109375 C 4.242188 -7.109375 3.710938 -6.972656 3.234375 -6.703125 C 2.753906 -6.441406 2.378906 -6.070312 2.109375 -5.59375 C 1.835938 -5.125 1.703125 -4.597656 1.703125 -4.015625 C 1.703125 -3.429688 1.835938 -2.90625 2.109375 -2.4375 C 2.378906 -1.96875 2.753906 -1.597656 3.234375 -1.328125 C 3.710938 -1.066406 4.242188 -0.9375 4.828125 -0.9375 Z M 4.828125 -0.9375 "/></g></g></g><g fill="#1f2540" fill-opacity="1"><g transform="translate(36.757373, 11.129598)"><g><path d="M 8.65625 0 L 8.640625 -5.859375 L 5.75 -0.96875 L 5.21875 -0.96875 L 2.3125 -5.828125 L 2.3125 0 L 1.203125 0 L 1.203125 -8.046875 L 2.140625 -8.046875 L 5.5 -2.390625 L 8.8125 -8.046875 L 9.75 -8.046875 L 9.765625 0 Z M 8.65625 0 "/></g></g></g><g fill="#1f2540" fill-opacity="1"><g transform="translate(49.26127, 11.129598)"><g><path d="M 8.65625 0 L 8.640625 -5.859375 L 5.75 -0.96875 L 5.21875 -0.96875 L 2.3125 -5.828125 L 2.3125 0 L 1.203125 0 L 1.203125 -8.046875 L 2.140625 -8.046875 L 5.5 -2.390625 L 8.8125 -8.046875 L 9.75 -8.046875 L 9.765625 0 Z M 8.65625 0 "/></g></g></g><g fill="#1f2540" fill-opacity="1"><g transform="translate(61.765168, 11.129598)"><g><path d="M 7.046875 -1 L 7.046875 0 L 1.203125 0 L 1.203125 -8.046875 L 6.875 -8.046875 L 6.875 -7.046875 L 2.359375 -7.046875 L 2.359375 -4.578125 L 6.390625 -4.578125 L 6.390625 -3.59375 L 2.359375 -3.59375 L 2.359375 -1 Z M 7.046875 -1 "/></g></g></g><g fill="#1f2540" fill-opacity="1"><g transform="translate(70.996948, 11.129598)"><g><path d="M 6.578125 0 L 4.84375 -2.46875 C 4.632812 -2.457031 4.46875 -2.453125 4.34375 -2.453125 L 2.359375 -2.453125 L 2.359375 0 L 1.203125 0 L 1.203125 -8.046875 L 4.34375 -8.046875 C 5.382812 -8.046875 6.203125 -7.796875 6.796875 -7.296875 C 7.390625 -6.796875 7.6875 -6.109375 7.6875 -5.234375 C 7.6875 -4.617188 7.535156 -4.09375 7.234375 -3.65625 C 6.929688 -3.21875 6.492188 -2.898438 5.921875 -2.703125 L 7.828125 0 Z M 4.3125 -3.421875 C 5.03125 -3.421875 5.582031 -3.578125 5.96875 -3.890625 C 6.351562 -4.203125 6.546875 -4.648438 6.546875 -5.234375 C 6.546875 -5.816406 6.351562 -6.265625 5.96875 -6.578125 C 5.582031 -6.890625 5.03125 -7.046875 4.3125 -7.046875 L 2.359375 -7.046875 L 2.359375 -3.421875 Z M 4.3125 -3.421875 "/></g></g></g><g fill="#1f2540" fill-opacity="1"><g transform="translate(80.883156, 11.129598)"><g><path d="M 4.796875 0.09375 C 3.992188 0.09375 3.269531 -0.0820312 2.625 -0.4375 C 1.976562 -0.789062 1.46875 -1.28125 1.09375 -1.90625 C 0.726562 -2.53125 0.546875 -3.234375 0.546875 -4.015625 C 0.546875 -4.796875 0.726562 -5.5 1.09375 -6.125 C 1.46875 -6.75 1.976562 -7.238281 2.625 -7.59375 C 3.28125 -7.945312 4.007812 -8.125 4.8125 -8.125 C 5.4375 -8.125 6.007812 -8.019531 6.53125 -7.8125 C 7.050781 -7.601562 7.492188 -7.289062 7.859375 -6.875 L 7.125 -6.15625 C 6.519531 -6.789062 5.765625 -7.109375 4.859375 -7.109375 C 4.265625 -7.109375 3.722656 -6.972656 3.234375 -6.703125 C 2.753906 -6.441406 2.378906 -6.070312 2.109375 -5.59375 C 1.835938 -5.125 1.703125 -4.597656 1.703125 -4.015625 C 1.703125 -3.429688 1.835938 -2.90625 2.109375 -2.4375 C 2.378906 -1.96875 2.753906 -1.597656 3.234375 -1.328125 C 3.722656 -1.066406 4.265625 -0.9375 4.859375 -0.9375 C 5.753906 -0.9375 6.507812 -1.253906 7.125 -1.890625 L 7.859375 -1.171875 C 7.492188 -0.753906 7.050781 -0.4375 6.53125 -0.21875 C 6.007812 -0.0078125 5.429688 0.09375 4.796875 0.09375 Z M 4.796875 0.09375 "/></g></g></g><g fill="#1f2540" fill-opacity="1"><g transform="translate(90.723438, 11.129598)"><g><path d="M 7.046875 -1 L 7.046875 0 L 1.203125 0 L 1.203125 -8.046875 L 6.875 -8.046875 L 6.875 -7.046875 L 2.359375 -7.046875 L 2.359375 -4.578125 L 6.390625 -4.578125 L 6.390625 -3.59375 L 2.359375 -3.59375 L 2.359375 -1 Z M 7.046875 -1 "/></g></g></g></g></g></svg>